<svg xmlns="http://www.w3.org/2000/svg" viewBox="0 0 400 160"><defs><style>.a{fill:#fff;}</style></defs><polygon class="a" points="44 106.02 44 139.78 20 139.78 20 39.78 40.77 39.78 56 73.98 56 39.78 80 39.78 80 139.78 59.03 139.78 44 106.02"/><polygon class="a" points="116 140 92 140 92 72.15 92 40 116 40 116 140"/><path class="a" d="M165.84,110c-1.85,5.6-4.42,6-5.84,6-2.32,0-8-1.67-8-26,0-23.21,5.2-26,8-26,1.39,0,4,.27,5.87,6h24.62C186.37,46.3,174.28,40,160,40c-17.67,0-32,11.13-32,50,0,41.44,14.33,50,32,50,14.46,0,26.67-4.82,30.64-30Z"/><path class="a" d="M242,40H218L194,140h24l2.4-10h19.2l2.4,10h24Zm-15.84,66L230,90l3.84,16Z"/><path class="a" d="M376,80a40,40,0,0,1-20,34.64l0-.06c-7.05,4-13.56,1.75-16.9-3.29s-2.54-12.45,3.59-17.17C357.36,82.8,351.54,63.46,336,64H304v76H280V64H261.76L256,40h80A40,40,0,0,1,376,80Z"/><path class="a" d="M152.47,32.62A32.92,32.92,0,0,0,132.2,44.13c-1.32-4-3.74-13.89.68-22.13C142.14,22.42,149.65,29.55,152.47,32.62Z"/><path class="a" d="M188,43.73a32.56,32.56,0,0,0-20.37-11.15c2.77-3.11,10.15-10.29,19.6-10.58C191.27,29.87,189.22,39.43,188,43.73Z"/></svg>